<?xml version="1.0" encoding="utf-8"?>
<!-- Generator: Adobe Illustrator 24.3.0, SVG Export Plug-In . SVG Version: 6.00 Build 0)  -->
<svg version="1.1" id="Ebene_1" xmlns="http://www.w3.org/2000/svg" xmlns:xlink="http://www.w3.org/1999/xlink" x="0px" y="0px"
	 viewBox="0 0 71.7 42.5" style="enable-background:new 0 0 71.7 42.5;" xml:space="preserve">
<style type="text/css">
	.st0{fill:#00FFD0;}
	.st1{fill:#FFFFFF;}
	.st2{fill:none;stroke:#FFFFFF;stroke-width:1.5;stroke-miterlimit:10;}
</style>
<g id="Make_it_a_stroke_-_medium_2_" transform="matrix(1, -0.017, 0.017, 1, 0, 1.24)">
	<path id="Pfad_67_2_" class="st0" d="M25.1,4.1c-1.5,0-3.1,0-4.6,0c-1,0-2,0-3.1-0.1c-0.1,0-0.2,0-0.2-0.1c0.1,0,0.2-0.1,0.2-0.1
		c1.5,0,3,0,4.5,0c3.7-0.1,7.5-0.2,11.2-0.2c4.6-0.1,9.1,0,13.7-0.1c2,0,4-0.3,5.9-0.3c4.4,0.2,8.8,0.5,13.2,0.8
		c0.7,0.1,1.4,0.2,2.1,0.4c0.1,0,0.2,0.2,0.2,0.3c0.2,1.6,0.7,3.2,0,4.8c0,0.1,0.1,0.5,0.2,0.5c0.5,0,0.5,0.3,0.2,0.8
		c0,0.2,0,0.4,0,0.6c0,0.2,0.1,0.5,0.1,0.5c-0.3,0.3-0.2,0.4-0.1,0.9c0,0.9-0.1,1.7-0.3,2.5c0,0.4,0,0.8,0,1.2
		c0,1.6,0.1,3.1,0.1,4.7c0,1.2-0.2,2.4-0.3,3.6c-0.1,0.8,0.3,1.7-0.3,2.4c0,0,0.1,0.7,0.2,1c0,0.2,0,0.4,0,0.7c-0.8,0.9-0.3,2-0.2,3
		c0,0.3-0.1,0.6-0.1,0.9c-0.1,0.8-0.2,1.6-0.4,2.5c-0.2,0.7-0.5,1.3-0.8,1.9c-0.7,1-1.5,0.6-2.2,0.2c-2.4-1.2-4.9-1.1-7.3-1.3
		c-4.1-0.2-8.1-0.3-12.2-0.3c-3.5,0-7.1,0.3-10.6,0.4c-2.6,0-5.2,0.2-7.7,0.5c-4.2,0.6-8.5,0.7-12.8,0.3c-3-0.2-6-0.5-9-1
		c-1.1-0.2-1.9-1.1-2-2.2c-0.2-1.3-0.3-2.6-0.3-4c0-1.8,0.1-3.7,0.2-5.5c0-2.4,0.1-4.7,0.1-7.1c0-0.4,0.1-0.7,0.2-1.1
		c0.4-1.3,0.5-2.8,0.3-4.2c0-0.1,0-0.2,0-0.3c0.6-0.8,0-1.7,0-2.5c0.1-2,0.1-4.1,1-5.9C4,3.4,4.2,3.2,4.5,3.3
		C8.3,3.6,12,4.1,15.7,4.4c2.9,0.2,5.9,0.1,8.8,0.1c0.2,0,0.4-0.1,0.6-0.1C25.1,4.2,25.1,4.2,25.1,4.1z M18.7,5.2V5
		c-0.3,0-0.7,0.1-1,0.1c-0.1,0-0.1,0.1-0.2,0.2c0.1,0,0.1,0.1,0.2,0.1c1.7,0.1,3.3,0.1,5,0.1c0.1,0,0.2-0.1,0.3-0.2
		c-0.1-0.1-0.2-0.1-0.3-0.1C21.3,5.2,20,5.2,18.7,5.2z M14.8,5.1L14.8,5.1c0.4,0.1,0.8,0.1,1.2,0.2c0.1,0,0.2-0.1,0.3-0.2
		C16.2,5,16.1,4.9,16,4.9c-0.8-0.1-1.7-0.1-2.5-0.1c-0.1,0-0.2,0.1-0.3,0.1c0.1,0.1,0.2,0.2,0.2,0.2C14,5.2,14.4,5.1,14.8,5.1
		L14.8,5.1z"/>
</g>
<g>
	<g>
		<path class="st1" d="M50.3,40l-20.1-8.2l-6.5,5.8L6.4,30.9V17.3L30,2.1l33.6,12l-0.4,13.2L50.3,40z M29.9,30l20,8.2l11.7-11.5
			L62,15.2L30.2,3.8L8,18.2v11.7l15.5,5.9L29.9,30z"/>
	</g>
	<g>
		<polygon class="st1" points="53,24 30.2,15 19.8,22.5 18.9,21.2 30,13.3 53.5,22.5 		"/>
	</g>
	<g>
		<polygon class="st1" points="50.4,27 30.2,19.4 23.7,24.1 6.9,18.5 7.5,17 23.5,22.4 30,17.6 50,25.2 62.3,14.1 63.3,15.2 		"/>
	</g>
	<g>
		<rect x="22.8" y="23.3" class="st1" width="1.6" height="13.4"/>
	</g>
	<g>
		<rect x="29.3" y="18.5" class="st1" width="1.6" height="12.4"/>
	</g>
	<g>
		
			<rect x="43.7" y="31.8" transform="matrix(2.604158e-03 -1 1 2.604158e-03 17.4472 82.6599)" class="st1" width="12.9" height="1.6"/>
	</g>
	<g>
		<rect x="29.3" y="2.9" class="st1" width="1.6" height="10.9"/>
	</g>
</g>
<g>
	<circle id="Ellipse_2" class="st1" cx="47.5" cy="9.3" r="7.3"/>
	<path class="st0" d="M45.9,13l-3.3-3.3c-0.2-0.2-0.2-0.5,0-0.7l0.7-0.7C43.5,8,43.8,8,44,8.2l2.3,2.3l4.8-4.8
		c0.2-0.2,0.5-0.2,0.7,0l0.7,0.7c0.2,0.2,0.2,0.5,0,0.7L46.6,13C46.4,13.2,46.1,13.2,45.9,13L45.9,13z"/>
</g>
</svg>
