<?xml version="1.0" encoding="utf-8"?>
<!-- Generator: Adobe Illustrator 23.0.3, SVG Export Plug-In . SVG Version: 6.00 Build 0)  -->
<svg version="1.1" id="Layer_1" xmlns="http://www.w3.org/2000/svg" xmlns:xlink="http://www.w3.org/1999/xlink" x="0px" y="0px"
	 viewBox="0 0 333.1 52" style="enable-background:new 0 0 333.1 52;" xml:space="preserve">
<style type="text/css">
	.st0{fill:#010101;}
	.st1{fill:#0D7DAF;}
</style>
<g>
	<g>
		<path class="st0" d="M11.6,5.8c0,0.7-0.1,1.4-0.4,2C10.9,8.4,10.5,9,10,9.4c-0.5,0.5-1,0.8-1.7,1.1C7.7,10.8,7,11,6.3,11
			c-0.7,0-1.4-0.1-2-0.4c-0.6-0.3-1.2-0.6-1.6-1.1C2.2,9,1.8,8.4,1.6,7.8c-0.3-0.6-0.4-1.3-0.4-2c0-0.7,0.1-1.4,0.4-2.1
			c0.3-0.6,0.6-1.2,1.1-1.7c0.5-0.5,1-0.8,1.6-1.1c0.6-0.3,1.3-0.4,2-0.4C7,0.6,7.7,0.7,8.4,1S9.6,1.7,10,2.1c0.5,0.5,0.9,1,1.1,1.7
			C11.5,4.4,11.6,5.1,11.6,5.8z M10.5,15.7v34H2.3v-34H10.5z"/>
		<path class="st0" d="M13.5,49.8v-34h5c1.1,0,1.8,0.5,2.1,1.5l0.5,2.5c0.6-0.7,1.2-1.3,1.9-1.8c0.7-0.6,1.3-1,2.1-1.4
			c0.7-0.4,1.5-0.7,2.4-0.9c0.9-0.2,1.8-0.3,2.8-0.3c2.1,0,3.9,0.6,5.3,1.7c1.4,1.2,2.4,2.7,3.1,4.6c0.5-1.1,1.2-2.1,2-2.9
			c0.8-0.8,1.7-1.5,2.6-2c1-0.5,2-0.9,3-1.1s2.1-0.4,3.2-0.4c1.9,0,3.5,0.3,5,0.9c1.5,0.6,2.7,1.4,3.7,2.5c1,1.1,1.8,2.5,2.3,4
			c0.5,1.6,0.8,3.4,0.8,5.5v21.7h-8.2V28.1c0-2.2-0.5-3.8-1.4-4.9c-1-1.1-2.3-1.6-4.2-1.6c-0.8,0-1.6,0.1-2.3,0.4
			c-0.7,0.3-1.3,0.7-1.9,1.2c-0.5,0.5-1,1.2-1.3,2c-0.3,0.8-0.5,1.8-0.5,2.8v21.7h-8.2V28.1c0-2.3-0.5-3.9-1.4-5
			c-0.9-1-2.3-1.6-4-1.6c-1.2,0-2.3,0.3-3.3,0.9c-1,0.6-2,1.4-2.9,2.4v24.9H13.5z"/>
		<path class="st0" d="M63.8,49.8v-34h5c1.1,0,1.8,0.5,2.1,1.5l0.5,2.5c0.6-0.7,1.2-1.3,1.9-1.8c0.7-0.6,1.3-1,2.1-1.4
			c0.7-0.4,1.5-0.7,2.4-0.9c0.9-0.2,1.8-0.3,2.8-0.3c2.1,0,3.9,0.6,5.3,1.7c1.4,1.2,2.4,2.7,3.1,4.6c0.5-1.1,1.2-2.1,2-2.9
			c0.8-0.8,1.7-1.5,2.6-2c1-0.5,2-0.9,3-1.1s2.1-0.4,3.2-0.4c1.9,0,3.5,0.3,5,0.9c1.5,0.6,2.7,1.4,3.7,2.5c1,1.1,1.8,2.5,2.3,4
			c0.5,1.6,0.8,3.4,0.8,5.5v21.7h-8.2V28.1c0-2.2-0.5-3.8-1.4-4.9c-1-1.1-2.3-1.6-4.2-1.6c-0.8,0-1.6,0.1-2.3,0.4
			c-0.7,0.3-1.3,0.7-1.9,1.2c-0.5,0.5-1,1.2-1.3,2c-0.3,0.8-0.5,1.8-0.5,2.8v21.7h-8.2V28.1c0-2.3-0.5-3.9-1.4-5
			c-0.9-1-2.3-1.6-4-1.6c-1.2,0-2.3,0.3-3.3,0.9c-1,0.6-2,1.4-2.9,2.4v24.9H63.8z"/>
		<path class="st1" d="M189.1,15.7l-13.5,34h-7.4l-13.5-34h6.8c0.6,0,1.1,0.1,1.5,0.4c0.4,0.3,0.7,0.7,0.8,1.1l6.6,18.2
			c0.4,1.1,0.7,2.1,0.9,3.1c0.3,1,0.5,2,0.7,3.1c0.2-1,0.5-2,0.7-3.1c0.3-1,0.6-2.1,1-3.1l6.7-18.2c0.2-0.4,0.4-0.8,0.8-1.1
			c0.4-0.3,0.9-0.4,1.4-0.4H189.1z"/>
		<path class="st1" d="M200.4,5.8c0,0.7-0.1,1.4-0.4,2s-0.7,1.2-1.1,1.6c-0.5,0.5-1,0.8-1.7,1.1c-0.6,0.3-1.3,0.4-2.1,0.4
			c-0.7,0-1.4-0.1-2-0.4c-0.6-0.3-1.2-0.6-1.6-1.1c-0.5-0.5-0.8-1-1.1-1.6s-0.4-1.3-0.4-2c0-0.7,0.1-1.4,0.4-2.1
			c0.3-0.6,0.6-1.2,1.1-1.7c0.5-0.5,1-0.8,1.6-1.1s1.3-0.4,2-0.4c0.7,0,1.4,0.1,2.1,0.4c0.6,0.3,1.2,0.6,1.7,1.1
			c0.5,0.5,0.9,1,1.1,1.7C200.3,4.4,200.4,5.1,200.4,5.8z M199.3,15.7v34h-8.2v-34H199.3z"/>
		<path class="st1" d="M208.7,33.8c0.1,1.7,0.4,3.3,0.9,4.5c0.5,1.3,1.1,2.3,1.9,3.2s1.7,1.4,2.8,1.9c1.1,0.4,2.3,0.6,3.6,0.6
			c1.3,0,2.5-0.2,3.4-0.5c1-0.3,1.8-0.7,2.5-1c0.7-0.4,1.3-0.7,1.9-1c0.5-0.3,1.1-0.5,1.6-0.5c0.7,0,1.2,0.3,1.5,0.8l2.4,3
			c-0.9,1.1-1.9,2-3.1,2.7c-1.1,0.7-2.3,1.3-3.5,1.7c-1.2,0.4-2.5,0.7-3.7,0.9c-1.3,0.2-2.5,0.3-3.7,0.3c-2.4,0-4.6-0.4-6.6-1.2
			s-3.8-1.9-5.3-3.5c-1.5-1.5-2.7-3.4-3.5-5.7c-0.9-2.3-1.3-4.9-1.3-7.9c0-2.3,0.4-4.5,1.1-6.5c0.8-2,1.8-3.8,3.2-5.3
			c1.4-1.5,3.1-2.7,5.1-3.6s4.3-1.3,6.8-1.3c2.1,0,4.1,0.3,5.9,1c1.8,0.7,3.4,1.7,4.7,3c1.3,1.3,2.3,2.9,3.1,4.8
			c0.7,1.9,1.1,4.1,1.1,6.5c0,1.2-0.1,2.1-0.4,2.5c-0.3,0.4-0.8,0.6-1.5,0.6H208.7z M224.3,28.8c0-1.1-0.1-2.1-0.4-3
			c-0.3-0.9-0.7-1.8-1.3-2.5c-0.6-0.7-1.4-1.3-2.3-1.7c-0.9-0.4-2-0.6-3.2-0.6c-2.4,0-4.2,0.7-5.6,2c-1.4,1.3-2.2,3.3-2.6,5.7H224.3
			z"/>
		<path class="st1" d="M281.9,15.7l-10.8,34h-6.6c-0.8,0-1.3-0.5-1.6-1.5l-6.1-19.7c-0.2-0.7-0.4-1.3-0.5-2s-0.3-1.3-0.4-2
			c-0.1,0.7-0.3,1.3-0.4,2c-0.2,0.7-0.3,1.3-0.5,2l-6.2,19.6c-0.3,1-0.9,1.5-1.8,1.5h-6.3l-10.8-34h6.5c0.6,0,1.1,0.1,1.5,0.4
			c0.4,0.3,0.7,0.7,0.8,1.1l4.9,18.2c0.2,1,0.5,2,0.6,2.9c0.2,1,0.3,1.9,0.5,2.9c0.2-1,0.5-1.9,0.8-2.9s0.6-1.9,0.9-2.9l5.6-18.2
			c0.1-0.4,0.4-0.8,0.8-1.1c0.4-0.3,0.9-0.4,1.4-0.4h3.6c0.6,0,1.1,0.1,1.5,0.4c0.4,0.3,0.7,0.7,0.8,1.1l5.5,18.2
			c0.3,1,0.6,2,0.8,2.9c0.3,1,0.5,1.9,0.7,2.9c0.3-1.9,0.7-3.8,1.2-5.8l5-18.2c0.2-0.4,0.4-0.8,0.8-1.1c0.4-0.3,0.9-0.4,1.4-0.4
			H281.9z"/>
		<path class="st1" d="M287,33.8c0.1,1.7,0.4,3.3,0.9,4.5c0.5,1.3,1.1,2.3,1.9,3.2s1.7,1.4,2.8,1.9c1.1,0.4,2.3,0.6,3.6,0.6
			c1.3,0,2.5-0.2,3.4-0.5c1-0.3,1.8-0.7,2.5-1c0.7-0.4,1.3-0.7,1.9-1c0.5-0.3,1.1-0.5,1.6-0.5c0.7,0,1.2,0.3,1.5,0.8l2.4,3
			c-0.9,1.1-1.9,2-3.1,2.7c-1.1,0.7-2.3,1.3-3.5,1.7c-1.2,0.4-2.5,0.7-3.7,0.9c-1.3,0.2-2.5,0.3-3.7,0.3c-2.4,0-4.6-0.4-6.6-1.2
			s-3.8-1.9-5.3-3.5c-1.5-1.5-2.7-3.4-3.5-5.7c-0.9-2.3-1.3-4.9-1.3-7.9c0-2.3,0.4-4.5,1.1-6.5c0.8-2,1.8-3.8,3.2-5.3
			c1.4-1.5,3.1-2.7,5.1-3.6s4.3-1.3,6.8-1.3c2.1,0,4.1,0.3,5.9,1c1.8,0.7,3.4,1.7,4.7,3c1.3,1.3,2.3,2.9,3.1,4.8
			c0.7,1.9,1.1,4.1,1.1,6.5c0,1.2-0.1,2.1-0.4,2.5c-0.3,0.4-0.8,0.6-1.5,0.6H287z M302.6,28.8c0-1.1-0.1-2.1-0.4-3
			c-0.3-0.9-0.7-1.8-1.3-2.5c-0.6-0.7-1.4-1.3-2.3-1.7c-0.9-0.4-2-0.6-3.2-0.6c-2.4,0-4.2,0.7-5.6,2c-1.4,1.3-2.2,3.3-2.6,5.7H302.6
			z"/>
		<path class="st1" d="M319.9,21.6c1.1-2,2.3-3.6,3.8-4.8c1.5-1.2,3.2-1.7,5.2-1.7c1.6,0,2.8,0.3,3.8,1l-0.5,6.1
			c-0.1,0.4-0.3,0.7-0.5,0.8c-0.2,0.2-0.5,0.2-0.8,0.2c-0.3,0-0.8-0.1-1.5-0.2c-0.7-0.1-1.3-0.2-1.9-0.2c-0.9,0-1.7,0.1-2.4,0.4
			c-0.7,0.3-1.3,0.6-1.9,1.1c-0.6,0.5-1.1,1.1-1.5,1.8c-0.4,0.7-0.8,1.5-1.2,2.4v21h-8.2v-34h4.8c0.8,0,1.4,0.1,1.8,0.4
			c0.3,0.3,0.6,0.8,0.7,1.6L319.9,21.6z"/>
	</g>
</g>
<g>
	<path class="st1" d="M128.6,24.1v10.7c0,1.3,1.3,2.1,2.5,1.5l9.3-5.4c0.5-0.3,0.8-0.8,0.8-1.5c0-0.6-0.3-1.2-0.8-1.5l-9.3-5.4
		c-0.3-0.2-0.6-0.2-0.9-0.2C129.4,22.4,128.6,23.1,128.6,24.1z"/>
	<path d="M154.9,25.5c-0.9-4.4-3.1-8.3-6.3-11.3l1.2-2.1c0.3-0.6,0.4-1.4,0-2c-0.4-0.6-1-1-1.7-1l-12.6,0.1c-0.4,0-0.7,0.1-1,0.3
		c-0.9,0.5-1.2,1.7-0.6,2.7l6.4,10.9c0.8,1.3,2.6,1.3,3.4,0l1.1-2c1.4,1.7,2.3,3.7,2.8,5.9c0.7,3.5,0,7.2-2,10.2c-2,3-5,5.1-8.6,5.8
		c-3.5,0.7-7.2,0-10.2-2c-3-2-5.1-5-5.8-8.6c-1.3-6.3,2.1-12.7,7.9-15.2c1.9-0.8,2.8-3.1,2-5c-0.8-1.9-3.1-2.8-5-2
		c-9.2,3.9-14.4,13.9-12.4,23.7c1.1,5.5,4.3,10.3,9.1,13.4c3.5,2.3,7.5,3.5,11.6,3.5c0.2,0,0.4,0,0.6,0h0c1.2,0,2.4-0.2,3.7-0.4
		c5.5-1.1,10.3-4.3,13.4-9.1C154.9,36.7,156,31,154.9,25.5z"/>
</g>
</svg>
