<svg xmlns="http://www.w3.org/2000/svg" width="29.165" height="297.08" viewBox="0 0 29.165 297.08">
  <g id="Gruppe_105" data-name="Gruppe 105" transform="translate(2718 -2060.418)">
    <path id="Pfad_71" data-name="Pfad 71" d="M-2703.417,2145.579v46.895" transform="translate(0 -55.996)" fill="none" stroke="#d3d3d3" stroke-width="3"/>
    <path id="Pfad_1002" data-name="Pfad 1002" d="M-2703.417,2145.579V2329" transform="translate(0 9.504)" fill="none" stroke="#d3d3d3" stroke-width="3"/>
    <path id="Icon_material-radio-button-checked" data-name="Icon material-radio-button-checked" d="M17.583,10.291a7.291,7.291,0,1,0,7.291,7.291A7.294,7.294,0,0,0,17.583,10.291Zm0-7.291A14.583,14.583,0,1,0,32.165,17.583,14.588,14.588,0,0,0,17.583,3Zm0,26.249A11.666,11.666,0,1,1,29.249,17.583,11.663,11.663,0,0,1,17.583,29.249Z" transform="translate(-2721 2057.418)" fill="#00ffd0"/>
    <path id="Icon_material-radio-button-checked-2" data-name="Icon material-radio-button-checked" d="M13.5,3a10.5,10.5,0,1,0,10.5,10.5A10.5,10.5,0,0,0,13.5,3Zm0,18.9a8.4,8.4,0,1,1,8.4-8.4A8.4,8.4,0,0,1,13.5,21.9Z" transform="translate(-2716.915 2132.503)" fill="#d3d3d3"/>
    <path id="Icon_material-radio-button-checked-3" data-name="Icon material-radio-button-checked" d="M13.5,3a10.5,10.5,0,1,0,10.5,10.5A10.5,10.5,0,0,0,13.5,3Zm0,18.9a8.4,8.4,0,1,1,8.4-8.4A8.4,8.4,0,0,1,13.5,21.9Z" transform="translate(-2716.915 2333.503)" fill="#d3d3d3"/>
  </g>
</svg>
